# xmcd CD database file
#
# Track frame offsets:
#	150
#	20751
#	44076
#	65101
#	87182
#	111283
#	130102
#	155099
#	176519
#	196507
#	216139
#	246801
#	267679
#
# Disc length: 3738 seconds
#
# Revision: 0
# Processed by: cddbd v1.5.1PL0 Copyright (c) Steve Scherf et al.
# Submitted via: CDex 1.51
#
DISCID=c20e980d
DTITLE=Various Artist - LLUVIA DEL MERENGUE MIX
DYEAR=1900
DGENRE=Merengue
TTITLE0=Live At Jimmy's (Miami)
TTITLE1=La Negra
TTITLE2=Donde Estas
TTITLE3=Mi Reina
TTITLE4=La Hora De Bailar
TTITLE5=A Gozar Todo El Mundo
TTITLE6=Cachamba
TTITLE7=La Duefia Del Swing
TTITLE8=Tu Eres Mi Hombre Y Yo Tu Mujer
TTITLE9=El Africano
TTITLE10=El Cantinero Rap
TTITLE11=Marinerito, Marineron
TTITLE12=Sigan Bailando
EXTD=
EXTT0=
EXTT1=
EXTT2=
EXTT3=
EXTT4=
EXTT5=
EXTT6=
EXTT7=
EXTT8=
EXTT9=
EXTT10=
EXTT11=
EXTT12=
PLAYORDER=
